<svg width="334" height="520" viewBox="0 0 334 520" fill="none" xmlns="http://www.w3.org/2000/svg">
<path d="M227.747 126.224L183.748 109.573L183.196 109.356C183.196 109.356 183.356 108.2 183.487 106.465C183.763 102.968 183.908 97.2726 182.252 95.3501C179.797 92.4593 172.854 94.8876 166.071 91.7944C159.287 88.7012 146.751 94.2372 146.751 94.2372C146.751 94.2372 137.687 92.575 133.678 99.0794C131.645 104.326 132.342 112.088 132.342 112.088L131.514 112.377C126.27 114.329 97.7419 125.01 91.7137 129.303C85.0465 134.001 77.6674 182.234 75.2997 196.4C72.9321 210.565 68.7196 223.328 70.8549 228.199C72.9901 233.07 103.639 256.558 121.273 262.614C138.908 268.671 201.441 266.951 201.441 266.951C201.441 266.951 202.457 266.676 204.273 266.098C214.848 262.716 252.368 248.753 272.282 215.971C272.311 216.028 253.021 153.109 227.747 126.224ZM108.869 207.356C105.629 209.64 107.416 218.486 107.416 218.486L101.911 213.658L115.739 179.821L121.637 205.838C121.637 205.838 112.108 205.087 108.869 207.356V207.356ZM219.496 228.849C217.971 229.63 223.854 213.369 221.065 209.683C218.276 205.997 209.866 206.344 209.866 206.344L210.577 201.907L215.56 176.467L217.215 174.516C217.215 174.516 234.327 203.699 237.392 213.99C237.392 214.019 218.741 228.849 219.496 228.849Z" fill="#7417EB"/>
<path d="M144.674 20.6941L121.956 44.6881C121.956 44.6881 118.833 47.4488 120.068 54.4013C121.303 61.3538 124.208 67.4101 126.401 67.8148C128.138 68.1173 129.897 68.272 131.659 68.2774C131.659 68.2774 136.526 78.7711 139.983 82.8906C139.983 82.8906 141.174 99.0938 140.535 103.589C140.535 103.589 148.698 110.686 156.382 111.582C164.066 112.478 175.934 100.77 175.934 100.77L178.839 86.4319C178.839 86.4319 185.811 75.9092 186.276 73.1051C186.741 70.301 189.936 71.0236 191.505 69.636C193.074 68.2484 196.691 62.0765 197.315 56.237C197.94 50.3975 197.955 43.6907 191.142 45.6565C185.23 44.081 188.934 31.6504 188.934 31.6504L178.548 22.5442L144.674 20.6941Z" fill="#E1E1E6"/>
<path opacity="0.5" d="M183.748 109.573C183.406 110.466 183.013 111.34 182.572 112.189C178.824 119.214 162.497 132.613 162.497 132.613L157.559 117.508L154.857 132.613C149.41 130.243 132.792 115.919 132.792 115.919C132.792 115.919 132.226 114.574 131.543 112.478L132.371 112.189C132.371 112.189 131.674 104.37 133.707 99.1805C137.687 92.6761 146.781 94.3384 146.781 94.3384C146.781 94.3384 159.316 88.8024 166.1 91.8956C172.883 94.9888 179.826 92.5894 182.281 95.4513C184.736 98.3133 183.225 109.414 183.225 109.414L183.748 109.573Z" fill="#E1E1E6"/>
<path opacity="0.2" d="M227.747 126.224L183.748 109.573L183.196 109.356C183.196 109.356 183.356 108.2 183.487 106.465L182.572 112.146L176.064 120.934C183.021 123.483 189.812 126.456 196.4 129.838C199.554 131.519 202.127 134.105 203.785 137.26C205.443 140.415 206.109 143.993 205.697 147.53L197.591 216.549L194.265 255.734L204.302 266.098C214.877 262.716 252.397 248.753 272.311 215.971C272.311 216.028 253.021 153.109 227.747 126.224ZM219.496 228.849C217.971 229.63 223.854 213.369 221.065 209.683C218.276 205.997 209.865 206.344 209.865 206.344L210.577 201.907L215.56 176.467L217.215 174.516C217.215 174.516 234.327 203.699 237.392 213.99C237.392 214.019 218.741 228.849 219.496 228.849Z" fill="black"/>
<path opacity="0.2" d="M124.556 209.683L117.714 186.932C117.714 186.932 105.44 145.289 97.0299 135.027L99.2378 164.311C99.2378 164.311 91.975 199.29 85.3367 209.683C78.6985 220.076 77.2169 222.692 85.3367 222.692C93.4566 222.692 113.226 238.36 113.226 238.36L111.701 225.351L124.556 209.683ZM107.314 218.486L101.809 213.658L115.637 179.821L121.535 205.838C121.535 205.838 112.064 205.13 108.825 207.399C105.586 209.669 107.314 218.486 107.314 218.486Z" fill="black"/>
<path d="M139.983 82.8906C139.983 82.8906 141.234 95.1622 139.983 100.77" stroke="#313B40" stroke-width="1.10311" stroke-linecap="round" stroke-linejoin="round"/>
<path d="M177.197 99.1227C177.211 95.1767 177.669 91.2447 178.563 87.4003" stroke="#313B40" stroke-width="1.10311" stroke-linecap="round" stroke-linejoin="round"/>
<path d="M180.495 29.8436C180.495 29.8436 187.961 39.1666 187.569 46.2203C187.177 53.2739 186.625 61.6285 186.813 69.8096C187.002 77.9907 173.61 95.1333 166.724 96.651C159.839 98.1687 153.913 98.559 149.511 94.1794C145.11 89.7997 140.709 83.7145 134.986 75.9093C129.263 68.104 130.628 50.9757 130.628 50.9757" stroke="#313B40" stroke-width="1.10311" stroke-linecap="round" stroke-linejoin="round"/>
<path d="M162.512 57.4946C162.057 60.0559 161.863 62.6563 161.931 65.2565C161.781 67.4479 162.466 69.6151 163.848 71.3272C164.676 72.1656 165.868 72.8449 166.027 74.0013C166.023 74.5218 165.878 75.0316 165.607 75.4768C165.336 75.922 164.949 76.2861 164.488 76.5308C163.556 76.9983 162.658 77.5296 161.8 78.1207" stroke="#313B40" stroke-width="1.10311" stroke-linecap="round" stroke-linejoin="round"/>
<path d="M150.703 79.0169C150.703 79.0169 151.56 84.5529 159.011 85.7092" stroke="#313B40" stroke-width="1.10311" stroke-linecap="round" stroke-linejoin="round"/>
<path d="M151.472 61.7151C151.472 63.3196 150.775 64.606 149.918 64.606C149.061 64.606 148.364 63.3196 148.364 61.7151C148.364 60.1107 149.061 58.8243 149.918 58.8243C150.775 58.8243 151.472 60.1252 151.472 61.7151Z" fill="#313B40"/>
<path d="M173.711 62.4089C173.711 64.0133 173.014 65.2998 172.157 65.2998C171.3 65.2998 170.603 63.9989 170.603 62.4089C170.603 60.819 171.3 59.5181 172.157 59.5181C173.014 59.5181 173.711 60.8045 173.711 62.4089Z" fill="#313B40"/>
<path d="M169.223 55.3993C169.223 55.3993 176.486 48.1705 182.572 56.2378" stroke="#313B40" stroke-width="2.20621" stroke-linecap="round" stroke-linejoin="round"/>
<path d="M153.927 55.5438C153.927 55.5438 149.337 50.4258 142.103 55.5438" stroke="#313B40" stroke-width="2.20621" stroke-linecap="round" stroke-linejoin="round"/>
<path d="M131.659 67.8149C131.659 67.8149 125.762 69.8818 124.193 65.3143C122.624 60.7467 117.25 48.7064 121.956 44.6881C126.662 40.6698 130.439 49.9928 130.439 49.9928" stroke="#313B40" stroke-width="1.10311" stroke-linecap="round" stroke-linejoin="round"/>
<path d="M186.799 70.3009C186.799 70.3009 192.275 71.3995 193.844 66.8319C195.412 62.2644 200.787 50.224 196.081 46.2058C191.374 42.1875 187.598 51.5105 187.598 51.5105" stroke="#313B40" stroke-width="1.10311" stroke-linecap="round" stroke-linejoin="round"/>
<path d="M130.439 61.7151C132.488 61.3937 134.337 60.3084 135.61 58.6797C136.388 57.2501 136.881 55.6845 137.063 54.0688C137.602 50.995 137.874 47.8806 137.876 44.7603C137.812 43.5413 137.925 42.3194 138.21 41.1323C138.647 39.9376 139.318 38.8417 140.186 37.909C142.234 35.5096 144.718 33.486 146.679 30.9999C147.73 29.8267 148.53 28.4525 149.029 26.9614C149.529 25.4703 149.718 23.8935 149.584 22.3274C154.078 26.0143 159.329 28.6768 164.968 30.1277C170.607 31.5786 176.497 31.7825 182.223 30.7253C192.609 28.7017 202.559 19.6389 201.354 8.24894C201.126 6.33928 200.303 4.54851 199 3.12792C197.698 1.70733 195.981 0.728228 194.091 0.328032C188.963 -0.94394 184.358 1.77344 179.71 3.5224C171.242 6.70233 162.948 1.23865 154.392 0.328032C147.129 -0.466951 138.08 0.443659 134.274 7.68522C134.274 7.68522 121.201 9.21737 115.391 19.9713C109.58 30.7253 120.576 45.5986 120.576 45.5986C120.576 45.5986 124.934 40.2795 130.643 51.0334L130.439 61.7151Z" fill="#313B40"/>
<path d="M181.395 27.0973C181.395 27.0973 177.996 44.7315 186.871 53.2739C186.871 53.2739 188.818 47.9692 190.779 46.6683C192.193 43.5388 192.792 40.1053 192.52 36.6848C192.248 33.2643 191.115 29.967 189.225 27.0973C182.659 16.8348 181.395 27.0973 181.395 27.0973Z" fill="#313B40"/>
<path opacity="0.2" d="M197.577 7.03477C196.798 9.44087 195.476 11.6382 193.714 13.4592C191.952 15.2803 189.796 16.677 187.409 17.543C175.091 22.5442 163.136 17.0082 150.79 15.9241C140.723 15.0279 129.611 24.0763 128.899 34.3677" stroke="#E1E1E6" stroke-width="1.10311" stroke-linecap="round" stroke-linejoin="round"/>
<path opacity="0.2" d="M121.303 31.6503C121.453 27.5892 122.763 23.6547 125.078 20.3067C127.393 16.9588 130.618 14.3357 134.376 12.7442" stroke="#E1E1E6" stroke-width="1.10311" stroke-linecap="round" stroke-linejoin="round"/>
<path d="M137.135 99.1227C142.552 104.74 149.088 109.171 156.324 112.132C156.324 112.132 171.067 107.868 178.562 97.6773" stroke="#313B40" stroke-width="1.10311" stroke-linecap="round" stroke-linejoin="round"/>
<path d="M152.203 73.4845C158.751 70.4958 161.624 62.7909 158.621 56.275C155.617 49.7591 147.874 46.8998 141.326 49.8885C134.778 52.8772 131.905 60.5822 134.908 67.098C137.911 73.6139 145.654 76.4732 152.203 73.4845Z" stroke="#313B40" stroke-width="1.10311" stroke-linecap="round" stroke-linejoin="round"/>
<path d="M177.479 74.627C184.629 73.7534 189.714 67.2772 188.836 60.1621C187.958 53.0469 181.45 47.9871 174.299 48.8608C167.149 49.7344 162.064 56.2106 162.942 63.3258C163.82 70.4409 170.328 75.5007 177.479 74.627Z" stroke="#313B40" stroke-width="1.10311" stroke-linecap="round" stroke-linejoin="round"/>
<path d="M139.983 94.2805C138.661 94.6257 137.423 95.2324 136.342 96.0644C135.262 96.8963 134.361 97.9365 133.693 99.1227C131.383 103.17 132.778 115.904 132.778 115.904C132.778 115.904 144.703 127.641 154.857 132.599L157.849 115.846L162.497 132.599C162.497 132.599 178.214 121.541 182.572 112.189C182.572 112.189 184.024 101.276 182.572 97.7351C182.242 96.7515 181.613 95.8939 180.773 95.2804C179.933 94.6669 178.922 94.3277 177.88 94.3094" stroke="#313B40" stroke-width="1.10311" stroke-linecap="round" stroke-linejoin="round"/>
<path d="M121.303 206.358C121.303 206.358 116.64 175.282 110.437 162.606" stroke="#313B40" stroke-width="1.10311" stroke-linecap="round" stroke-linejoin="round"/>
<path d="M97.0302 135.027C100.641 140.134 103.865 145.502 106.675 151.086" stroke="#313B40" stroke-width="1.10311" stroke-linecap="round" stroke-linejoin="round"/>
<path d="M219.496 158.226C220.748 153.03 222.464 147.956 224.623 143.063" stroke="#313B40" stroke-width="1.10311" stroke-linecap="round" stroke-linejoin="round"/>
<path d="M209.865 206.359C209.865 206.359 213.221 185.053 217.23 167.506" stroke="#313B40" stroke-width="1.10311" stroke-linecap="round" stroke-linejoin="round"/>
<path d="M215.559 176.438C218.803 172.159 223.363 169.053 228.545 167.592" stroke="#313B40" stroke-width="1.10311" stroke-linecap="round" stroke-linejoin="round"/>
<path d="M183.211 109.356C183.211 109.356 210.272 120.125 227.747 126.239C227.747 126.239 249.245 146.345 272.297 216.028C272.297 216.028 251.177 251.383 210.999 262.715" stroke="#313B40" stroke-width="1.10311" stroke-linecap="round" stroke-linejoin="round"/>
<path d="M217.971 230.107L237.392 214.019C237.392 214.019 247.661 206.257 258.338 211.562" stroke="#313B40" stroke-width="1.10311" stroke-linecap="round" stroke-linejoin="round"/>
<path d="M217.23 174.516C217.23 174.516 233.281 198.12 237.392 214.019" stroke="#313B40" stroke-width="1.10311" stroke-linecap="round" stroke-linejoin="round"/>
<path d="M107.532 219.382L101.853 214.019C101.853 214.019 93.428 212.574 83.8701 218.919" stroke="#313B40" stroke-width="1.10311" stroke-linecap="round" stroke-linejoin="round"/>
<path d="M101.853 214.019C101.853 214.019 108.912 190.893 115.87 179.055" stroke="#313B40" stroke-width="1.10311" stroke-linecap="round" stroke-linejoin="round"/>
<path d="M132.371 112.189C132.371 112.189 93.4282 126.73 89.6079 130.98C85.7877 135.229 71.2765 216.534 70.8843 225.843C70.5502 234.168 100.88 252.858 115.914 260.735" stroke="#313B40" stroke-width="1.10311" stroke-linecap="round" stroke-linejoin="round"/>
<path d="M161.495 139.667C161.495 140.173 161.344 140.667 161.062 141.088C160.779 141.509 160.378 141.837 159.908 142.03C159.438 142.224 158.921 142.275 158.422 142.176C157.924 142.077 157.466 141.834 157.106 141.476C156.746 141.118 156.502 140.662 156.402 140.166C156.303 139.67 156.354 139.155 156.549 138.688C156.743 138.22 157.073 137.821 157.496 137.54C157.918 137.258 158.416 137.108 158.924 137.108C159.262 137.107 159.597 137.171 159.91 137.299C160.223 137.427 160.507 137.616 160.746 137.853C160.986 138.091 161.175 138.374 161.303 138.685C161.432 138.997 161.497 139.33 161.495 139.667Z" fill="#313B40"/>
<path d="M206.554 275.855H117.947C117.396 275.855 116.868 275.638 116.478 275.25C116.089 274.862 115.87 274.336 115.87 273.788C115.87 273.24 116.089 272.714 116.478 272.326C116.868 271.938 117.396 271.72 117.947 271.72H206.554C207.105 271.72 207.633 271.938 208.022 272.326C208.412 272.714 208.631 273.24 208.631 273.788C208.631 274.336 208.412 274.862 208.022 275.25C207.633 275.638 207.105 275.855 206.554 275.855Z" fill="#313B40"/>
<path d="M209.662 268.945L221.53 213.441C221.714 212.581 221.702 211.69 221.495 210.834C221.289 209.979 220.892 209.18 220.335 208.497C219.778 207.814 219.074 207.263 218.276 206.886C217.477 206.508 216.604 206.313 215.719 206.315H112.151C111.275 206.315 110.409 206.509 109.616 206.882C108.824 207.256 108.125 207.799 107.569 208.474C107.013 209.149 106.615 209.938 106.402 210.784C106.19 211.631 106.169 212.513 106.341 213.369L116.988 267.023C117.249 268.341 117.955 269.53 118.987 270.395C120.02 271.26 121.318 271.748 122.668 271.778L203.707 273.628C205.092 273.659 206.444 273.208 207.531 272.353C208.618 271.499 209.372 270.293 209.662 268.945Z" fill="#E1E1E6" stroke="#313B40" stroke-width="1.10311" stroke-linecap="round" stroke-linejoin="round"/>
<path d="M171.866 238.346C171.863 239.972 171.376 241.56 170.466 242.911C169.556 244.262 168.264 245.314 166.754 245.934C165.243 246.554 163.582 246.715 161.98 246.396C160.377 246.077 158.906 245.293 157.752 244.142C156.597 242.991 155.811 241.526 155.494 239.931C155.176 238.336 155.34 236.683 155.966 235.181C156.592 233.679 157.652 232.395 159.011 231.492C160.37 230.589 161.967 230.107 163.601 230.107C164.688 230.107 165.764 230.32 166.767 230.734C167.771 231.149 168.683 231.756 169.45 232.521C170.218 233.286 170.827 234.194 171.241 235.194C171.656 236.193 171.868 237.264 171.866 238.346Z" fill="#313B40"/>
<path d="M188.121 211.62H200.424" stroke="#313B40" stroke-width="1.10311" stroke-linecap="round" stroke-linejoin="round"/>
<path d="M129.364 211.62H176.064" stroke="#313B40" stroke-width="1.10311" stroke-linecap="round" stroke-linejoin="round"/>
<path d="M159.796 63.7677H163.267" stroke="#313B40" stroke-width="1.10311" stroke-linecap="round" stroke-linejoin="round"/>
<path d="M23.4239 270.367L33.1431 270.61L26.8008 461.334L26.8007 461.334C26.7867 461.766 26.5769 462.195 26.1847 462.522C25.7905 462.852 25.2487 463.045 24.6725 463.045C24.0805 463.045 23.5255 462.842 23.1267 462.5C22.7307 462.16 22.5261 461.716 22.5258 461.272C22.5258 461.272 22.5258 461.272 22.5258 461.271L23.4239 270.367Z" fill="#E1E1E6" stroke="#263238" stroke-linecap="round" stroke-linejoin="round"/>
<path d="M13.0886 512.171C13.0628 512.757 12.7979 513.311 12.3495 513.717C11.901 514.123 11.3038 514.35 10.6827 514.349L10.6794 513.849M13.0886 512.171L18.8383 315.06L18.3385 315.047M13.0886 512.171L12.5888 512.157L12.589 512.153C12.5683 512.6 12.3658 513.028 12.0139 513.347C11.6602 513.667 11.1837 513.849 10.6831 513.849C10.6819 513.849 10.6806 513.849 10.6794 513.849M13.0886 512.171L12.5891 512.149L18.3385 315.047M18.3385 315.047L18.353 314.548L9.56196 314.321L9.55998 314.821M18.3385 315.047L9.55998 314.821M9.55998 314.821L9.06002 314.808L8.27673 512.077C8.27451 512.376 8.33522 512.672 8.45534 512.949C8.57547 513.225 8.75262 513.477 8.97647 513.688C9.20033 513.9 9.46642 514.067 9.75933 514.18C9.89714 514.234 10.0396 514.275 10.1848 514.303C10.208 514.049 10.4203 513.851 10.6794 513.849M9.55998 314.821L8.77673 512.079L8.77672 512.08C8.77502 512.309 8.82139 512.536 8.91397 512.75C9.00659 512.963 9.14402 513.159 9.31979 513.325C9.49561 513.491 9.70615 513.624 9.93992 513.714C10.1737 513.805 10.4252 513.851 10.6794 513.849" fill="#E1E1E6" stroke="#263238" stroke-linecap="round" stroke-linejoin="round"/>
<path d="M310.496 270.368L301.753 270.609L307.511 461.332C307.511 461.332 307.511 461.333 307.511 461.333C307.528 461.783 307.729 462.216 308.083 462.538C308.437 462.861 308.917 463.045 309.421 463.045C309.421 463.045 309.421 463.045 309.421 463.045L310.496 270.368ZM310.496 270.368L311.314 461.273L311.314 461.275C311.316 461.503 311.27 461.729 311.178 461.942C311.086 462.154 310.949 462.35 310.775 462.516C310.6 462.682 310.39 462.815 310.158 462.906C309.925 462.998 309.675 463.045 309.421 463.045L310.496 270.368Z" fill="#E1E1E6" stroke="#263238" stroke-linecap="round" stroke-linejoin="round"/>
<path d="M315.501 315.047L324.246 314.821L325.063 512.079L325.063 512.08C325.065 512.309 325.018 512.536 324.926 512.75C324.833 512.963 324.696 513.159 324.52 513.325C324.344 513.491 324.134 513.624 323.9 513.714C323.666 513.805 323.415 513.851 323.16 513.849C323.159 513.849 323.158 513.849 323.157 513.849C322.658 513.849 322.184 513.666 321.833 513.347C321.484 513.028 321.284 512.6 321.267 512.155C321.267 512.154 321.267 512.154 321.267 512.153L315.501 315.047Z" fill="#E1E1E6" stroke="#263238" stroke-linecap="round" stroke-linejoin="round"/>
<path d="M108.785 498.606C108.61 498.822 108.364 498.969 108.091 499.024C107.809 498.964 107.558 498.806 107.383 498.579C107.194 498.333 107.108 498.024 107.143 497.717C107.145 497.699 107.146 497.68 107.146 497.662L107.604 323.293L112.472 323.462L109.045 497.729C109.044 497.745 109.045 497.761 109.046 497.777C109.069 498.075 108.976 498.372 108.785 498.606Z" fill="#E1E1E6" stroke="#263238" stroke-linecap="round" stroke-linejoin="round"/>
<path d="M222.427 317.041L227.252 316.936L227.754 470.428C227.754 470.446 227.755 470.465 227.757 470.483C227.782 470.701 227.711 470.932 227.53 471.129C227.359 471.315 227.102 471.455 226.8 471.507C226.499 471.456 226.245 471.316 226.077 471.13C225.9 470.934 225.832 470.706 225.86 470.49C225.863 470.465 225.865 470.44 225.864 470.415L222.427 317.041Z" fill="#E1E1E6" stroke="#263238" stroke-linecap="round" stroke-linejoin="round"/>
<path d="M99.7431 317.041L104.568 316.936L105.07 470.428C105.07 470.446 105.071 470.465 105.073 470.483C105.098 470.701 105.027 470.932 104.846 471.129C104.675 471.315 104.418 471.455 104.116 471.507C103.815 471.456 103.561 471.316 103.393 471.13C103.216 470.934 103.148 470.706 103.176 470.49C103.179 470.465 103.181 470.44 103.18 470.415L99.7431 317.041Z" fill="#E1E1E6" stroke="#263238" stroke-linecap="round" stroke-linejoin="round"/>
<path d="M224.005 323.29L224.576 497.662C224.576 497.684 224.578 497.705 224.581 497.727C224.618 498.007 224.53 498.302 224.307 498.55C224.093 498.788 223.771 498.964 223.394 499.026C223.028 498.967 222.712 498.801 222.496 498.574C222.271 498.336 222.172 498.052 222.194 497.778C222.194 497.771 222.194 497.765 222.195 497.759C222.195 497.748 222.195 497.738 222.195 497.728L218.197 323.465L224.005 323.29Z" fill="#E1E1E6" stroke="#263238" stroke-linecap="round" stroke-linejoin="round"/>
<path d="M240.658 318.638C240.658 319.677 240.197 320.733 239.234 321.802C238.268 322.874 236.82 323.932 234.914 324.956C231.102 327.002 225.554 328.861 218.655 330.427C204.866 333.559 185.792 335.5 164.706 335.5C143.621 335.5 124.547 333.559 110.758 330.427C103.859 328.861 98.3107 327.002 94.4991 324.956C92.593 323.932 91.1451 322.874 90.1793 321.802C89.2161 320.733 88.7546 319.677 88.7546 318.638C88.7546 317.599 89.2161 316.543 90.1793 315.474C91.1451 314.402 92.593 313.344 94.4991 312.32C98.3107 310.274 103.859 308.415 110.758 306.849C124.547 303.717 143.621 301.776 164.706 301.776C185.792 301.776 204.866 303.717 218.655 306.849C225.554 308.415 231.102 310.274 234.914 312.32C236.82 313.344 238.268 314.402 239.234 315.474C240.197 316.543 240.658 317.599 240.658 318.638Z" fill="#E1E1E6" stroke="#263238" stroke-linecap="round" stroke-linejoin="round"/>
<path d="M127.847 466.363C127.857 466.348 127.866 466.335 127.872 466.326C128.245 465.905 128.96 465.397 129.928 464.874C130.899 464.35 132.082 463.835 133.331 463.396C135.855 462.51 138.549 461.974 140.285 462.244C141.864 462.49 142.769 463.68 143.318 465.563C143.863 467.429 144.007 469.815 144.152 472.217L144.158 472.314C144.361 475.676 143.998 477.013 143.357 479.369C143.095 480.333 142.786 481.468 142.451 482.982C142.159 484.299 141.999 487.052 141.804 490.41L141.798 490.516C141.598 493.951 141.358 498.067 140.913 502.109C140.467 506.155 139.819 510.1 138.811 513.199C138.307 514.748 137.719 516.065 137.036 517.072C136.353 518.079 135.596 518.746 134.761 519.052C131.169 520.369 127.378 518.672 124.924 515.305C122.478 511.947 121.437 507.005 123.373 502.051C124.825 498.335 126.35 494.699 127.721 491.431C128.238 490.2 128.732 489.021 129.193 487.91C130.033 485.883 130.76 484.079 131.297 482.601C131.827 481.139 132.189 479.946 132.269 479.163C132.351 478.37 132.221 477.759 131.841 477.284C131.483 476.835 130.953 476.58 130.434 476.365C130.284 476.303 130.129 476.242 129.97 476.179C128.993 475.793 127.854 475.344 126.694 474.198C125.49 473.009 125.669 471.153 126.304 469.393C126.613 468.539 127.009 467.765 127.33 467.201C127.491 466.921 127.631 466.695 127.731 466.539C127.781 466.462 127.821 466.402 127.847 466.363Z" fill="#E1E1E6" stroke="#263238" stroke-linecap="round" stroke-linejoin="round"/>
<path d="M122.882 511.001C123.674 513.869 125.337 516.286 127.401 517.799C129.592 519.405 132.214 519.983 134.761 519.052L122.882 511.001ZM122.882 511.001C125.034 510.803 127.847 510.636 130.729 510.717C133.708 510.801 136.726 511.15 139.158 511.983C138.664 513.765 138.079 515.314 137.378 516.522C136.618 517.832 135.75 518.69 134.761 519.052L122.882 511.001Z" fill="#61DCFB" stroke="#263238" stroke-linecap="round" stroke-linejoin="round"/>
<path d="M119.746 454.005C119.786 454.005 119.827 454 119.866 453.99L136.574 449.839C136.587 449.886 136.6 449.936 136.614 449.989C136.722 450.386 136.875 450.959 137.056 451.663C137.419 453.072 137.893 455.003 138.34 457.092C138.787 459.182 139.206 461.425 139.459 463.458C139.715 465.505 139.796 467.292 139.594 468.496C139.209 470.789 137.275 472.238 135.079 472.672C132.862 473.111 130.611 472.476 129.62 470.876C128.48 469.037 125.837 464.632 123.476 460.683C122.296 458.709 121.187 456.851 120.374 455.486C120.016 454.886 119.716 454.382 119.491 454.005H119.746Z" fill="#E1E1E6" stroke="#263238" stroke-linecap="round" stroke-linejoin="round"/>
<path d="M99.1924 431.724C99.2138 431.686 99.2318 431.655 99.2458 431.632C100.266 430.713 102.278 429.64 104.878 428.539C107.501 427.428 110.66 426.313 113.851 425.321C117.042 424.329 120.258 423.461 122.994 422.842C125.746 422.22 127.969 421.859 129.195 421.859C129.402 421.859 129.606 421.858 129.807 421.858C130.867 421.856 131.84 421.854 132.741 421.919C133.809 421.996 134.736 422.167 135.537 422.524C137.09 423.216 138.311 424.676 139.014 428.001C139.454 430.081 139.951 432.076 140.416 433.944C140.714 435.138 140.999 436.28 141.247 437.361C141.893 440.166 142.306 442.591 142.166 444.645C142.035 446.56 140.597 448.719 137.789 450.638C134.996 452.546 130.916 454.164 125.679 455.009C120.441 455.854 115.569 455.712 111.773 454.909C109.874 454.507 108.259 453.943 107.005 453.265C105.746 452.583 104.888 451.806 104.448 450.996C102.87 448.087 100.587 442.886 99.124 439.555C98.7349 438.669 98.404 437.915 98.1599 437.372C97.6666 436.275 97.8977 434.867 98.3202 433.648C98.5265 433.052 98.768 432.531 98.9585 432.158C99.0534 431.972 99.1351 431.824 99.1924 431.724Z" fill="#61DCFB" stroke="#263238" stroke-linecap="round" stroke-linejoin="round"/>
<path d="M133.816 332.377L133.816 332.377C134.294 326.121 133.779 319.829 132.289 313.733L124.667 303.384C113.508 303.528 103.931 303.693 97.0976 303.833C93.6546 303.903 90.9087 303.967 89.0078 304.019C88.0571 304.045 87.3191 304.068 86.8113 304.087C86.557 304.096 86.3627 304.105 86.2291 304.112C86.195 304.114 86.1658 304.115 86.141 304.117C86.1282 304.134 86.1108 304.158 86.0894 304.194C86.0167 304.316 85.9346 304.505 85.8474 304.767C85.6741 305.289 85.5078 306.018 85.3467 306.884C85.0912 308.257 84.8587 309.92 84.631 311.548C84.572 311.97 84.5133 312.39 84.4546 312.802C84.423 313.023 84.2479 313.197 84.0262 313.227C84.0253 313.227 84.0245 313.227 84.0237 313.227L84.0247 313.227L84.026 313.227L84.0168 313.228C84.0062 313.23 83.9871 313.234 83.9601 313.24C83.906 313.251 83.8202 313.273 83.7078 313.31C83.483 313.384 83.1508 313.519 82.7503 313.762C81.9518 314.245 80.8664 315.165 79.8178 316.903C77.7152 320.389 75.7513 327.189 76.6072 340.372L133.816 332.377ZM133.816 332.377L133.816 332.383L133.816 332.377ZM87.2033 391.548L87.2033 391.548C89.3449 406.369 92.8005 417.483 95.7165 424.886C97.1745 428.588 98.4977 431.362 99.4544 433.208C99.9328 434.13 100.32 434.821 100.586 435.279C100.719 435.509 100.822 435.68 100.891 435.793C100.909 435.822 100.925 435.848 100.938 435.87C100.95 435.889 100.961 435.906 100.969 435.919L100.988 435.949L100.992 435.956L100.993 435.958L100.993 435.958C101.022 436.003 101.044 436.053 101.057 436.104C101.058 436.106 101.058 436.108 101.059 436.111C101.061 436.117 101.065 436.126 101.069 436.138C101.074 436.149 101.079 436.163 101.087 436.179C101.117 436.246 101.175 436.354 101.279 436.49C101.485 436.76 101.881 437.15 102.625 437.528C104.121 438.289 107.023 439.004 112.561 438.581C118.058 438.16 123.578 436.127 127.742 434.183C129.82 433.213 131.552 432.27 132.764 431.569C133.369 431.219 133.844 430.93 134.167 430.728C134.259 430.671 134.339 430.621 134.406 430.579L134.371 430.226C134.329 429.796 134.268 429.162 134.19 428.346C134.034 426.713 133.812 424.354 133.548 421.443C133.019 415.622 132.32 407.596 131.639 398.779C130.277 381.154 128.987 360.336 129.279 347.649C129.279 347.649 129.279 347.649 129.279 347.648L129.779 347.66L87.2033 391.548ZM87.2033 391.548C86.8898 389.383 84.833 379.862 82.6176 369.607M87.2033 391.548L82.6176 369.607M82.6176 369.607C82.321 368.234 82.0216 366.848 81.7231 365.465M82.6176 369.607L81.7231 365.465M81.7231 365.465C80.4571 359.597 79.2061 353.769 78.2566 349.177M81.7231 365.465L78.2566 349.177M78.2566 349.177C77.7818 346.881 77.3828 344.896 77.0952 343.372M78.2566 349.177L77.0952 343.372M77.0952 343.372C76.8049 341.832 76.6349 340.796 76.6072 340.372L77.0952 343.372ZM86.0581 304.124C86.0505 304.125 86.0488 304.125 86.0556 304.124C86.056 304.124 86.0569 304.124 86.0581 304.124Z" fill="#263238" stroke="#263238" stroke-linecap="round" stroke-linejoin="round"/>
<path d="M125.899 316.451L125.884 316.447C118.616 314.573 111.178 313.428 103.681 313.029C103.631 312.963 103.568 312.879 103.494 312.779C103.29 312.503 103.006 312.108 102.683 311.635C102.036 310.684 101.246 309.428 100.653 308.18C100.047 306.905 99.6982 305.744 99.8104 304.943C99.8627 304.57 100.011 304.303 100.265 304.118C100.533 303.922 100.979 303.773 101.707 303.773C104.845 303.773 119.296 304.204 132.965 304.989C139.8 305.381 146.428 305.862 151.344 306.421C153.805 306.7 155.821 306.998 157.216 307.31C157.918 307.467 158.436 307.622 158.769 307.77C158.915 307.835 159.004 307.889 159.053 307.927C159.056 308.331 159.076 308.914 159.1 309.625C159.17 311.662 159.277 314.75 159.12 317.685C159.012 319.702 158.781 321.589 158.344 322.958C158.125 323.644 157.867 324.161 157.576 324.5C157.297 324.826 157.006 324.967 156.683 324.967C155.754 324.967 153.989 324.629 151.653 324.049C149.338 323.474 146.519 322.677 143.515 321.788C140.546 320.911 137.374 319.937 134.339 319.006C131.268 318.064 128.337 317.164 125.899 316.451ZM159.089 307.96C159.089 307.96 159.089 307.959 159.088 307.958C159.089 307.959 159.089 307.96 159.089 307.96Z" fill="#E1E1E6" stroke="#263238" stroke-linecap="round" stroke-linejoin="round"/>
<path d="M159.613 308.372C159.64 308.356 159.664 308.341 159.685 308.329C159.725 308.328 159.776 308.328 159.835 308.327C160.014 308.325 160.276 308.322 160.609 308.322C161.277 308.321 162.23 308.328 163.37 308.359C165.652 308.421 168.678 308.581 171.662 308.97C174.657 309.36 177.568 309.975 179.645 310.929C180.684 311.406 181.475 311.951 181.971 312.56C182.454 313.153 182.664 313.813 182.544 314.583C181.98 318.203 180.143 322.843 178.144 326.884C177.147 328.898 176.117 330.752 175.196 332.239C174.267 333.739 173.47 334.832 172.944 335.355C172.753 335.545 172.374 335.739 171.769 335.898C171.177 336.053 170.428 336.161 169.56 336.221C167.825 336.343 165.671 336.273 163.468 336.061C161.267 335.85 159.034 335.498 157.143 335.059C155.231 334.616 153.734 334.099 152.956 333.585C152.195 333.082 151.769 332.471 151.56 331.712C151.345 330.93 151.351 329.961 151.526 328.741C151.7 327.523 152.033 326.106 152.437 324.438C152.471 324.295 152.506 324.15 152.542 324.004C152.918 322.449 153.343 320.697 153.737 318.737C154.58 314.548 156.121 311.923 157.428 310.354C158.083 309.568 158.682 309.043 159.111 308.718C159.325 308.556 159.497 308.443 159.613 308.372ZM159.776 308.279C159.776 308.279 159.776 308.279 159.776 308.279L159.776 308.279Z" fill="#61DCFB" stroke="#263238" stroke-linecap="round" stroke-linejoin="round"/>
<path d="M170.431 332.497C171.116 328.637 172.041 324.822 173.201 321.076C174.67 317.415 176.747 314.026 179.346 311.049L179.517 310.941C179.67 310.845 179.894 310.704 180.181 310.524C180.756 310.163 181.583 309.646 182.594 309.021C184.616 307.769 187.371 306.083 190.304 304.344C193.238 302.604 196.347 300.813 199.077 299.352C201.821 297.884 204.14 296.771 205.515 296.36C206.154 296.17 207.385 296.061 209.126 296.049C210.847 296.038 213.013 296.121 215.484 296.289C220.427 296.624 226.571 297.296 232.789 298.218C239.008 299.139 245.29 300.308 250.512 301.635C253.123 302.299 255.461 303.001 257.39 303.728C259.328 304.458 260.818 305.202 261.759 305.938C265.641 308.976 269.322 315.548 271.028 322.603C272.735 329.666 272.414 337.007 268.554 341.656C264.559 346.467 261.011 349.844 257.839 352.015C254.668 354.185 251.901 355.132 249.456 355.132C247.013 355.132 244.831 354.336 241.365 353.071L241.248 353.029C237.731 351.746 232.984 350.03 225.516 348.316C222.287 347.575 219.04 346.863 215.838 346.16C211.642 345.24 207.524 344.336 203.624 343.407C196.755 341.771 190.634 340.073 186.091 338.103C181.018 335.852 175.783 333.978 170.431 332.497Z" fill="#263238" stroke="#263238" stroke-linecap="round" stroke-linejoin="round"/>
<mask id="path-60-inside-1_31_1808" fill="white">
<path d="M128.903 335.181C128.903 335.181 122.993 398.022 110.932 407.804Z"/>
</mask>
<path d="M129.401 335.227C129.427 334.953 129.225 334.709 128.95 334.683C128.675 334.657 128.431 334.859 128.405 335.134L129.401 335.227ZM110.617 407.416C110.403 407.59 110.37 407.904 110.544 408.119C110.718 408.333 111.033 408.366 111.247 408.192L110.617 407.416ZM128.903 335.181C128.405 335.134 128.405 335.134 128.405 335.134C128.405 335.135 128.405 335.136 128.405 335.137C128.405 335.138 128.404 335.141 128.404 335.145C128.403 335.152 128.402 335.164 128.401 335.179C128.398 335.209 128.394 335.254 128.388 335.313C128.376 335.432 128.359 335.608 128.336 335.839C128.29 336.301 128.221 336.979 128.128 337.847C127.943 339.582 127.666 342.072 127.295 345.091C126.553 351.13 125.438 359.282 123.948 367.737C122.457 376.195 120.592 384.944 118.351 392.182C117.23 395.801 116.019 399.031 114.719 401.653C113.415 404.284 112.042 406.26 110.617 407.416L111.247 408.192C112.838 406.902 114.288 404.775 115.615 402.097C116.947 399.41 118.176 396.125 119.306 392.478C121.565 385.182 123.439 376.386 124.933 367.911C126.427 359.433 127.544 351.263 128.287 345.213C128.659 342.188 128.937 339.693 129.123 337.953C129.215 337.083 129.285 336.402 129.331 335.939C129.354 335.707 129.372 335.529 129.383 335.409C129.389 335.35 129.393 335.304 129.396 335.274C129.398 335.259 129.399 335.247 129.4 335.239C129.4 335.235 129.4 335.232 129.4 335.231C129.4 335.23 129.401 335.229 129.401 335.228C129.401 335.228 129.401 335.227 128.903 335.181Z" fill="#49606B" mask="url(#path-60-inside-1_31_1808)"/>
<mask id="path-62-inside-2_31_1808" fill="white">
<path d="M124.728 394.829C124.728 394.829 120.038 415.315 107.737 423.459Z"/>
</mask>
<path d="M125.216 394.941C125.277 394.672 125.109 394.404 124.84 394.342C124.571 394.28 124.302 394.449 124.241 394.718L125.216 394.941ZM107.461 423.042C107.231 423.194 107.168 423.504 107.32 423.735C107.473 423.965 107.783 424.028 108.013 423.876L107.461 423.042ZM124.728 394.829C124.241 394.718 124.241 394.718 124.241 394.718C124.241 394.718 124.241 394.718 124.241 394.718C124.241 394.719 124.24 394.719 124.24 394.721C124.24 394.723 124.239 394.726 124.238 394.731C124.236 394.74 124.232 394.754 124.228 394.773C124.219 394.811 124.205 394.867 124.187 394.942C124.15 395.091 124.095 395.313 124.019 395.598C123.869 396.168 123.639 396.993 123.325 398.01C122.698 400.044 121.734 402.84 120.388 405.888C117.689 412.002 113.49 419.051 107.461 423.042L108.013 423.876C114.285 419.723 118.581 412.457 121.303 406.292C122.668 403.201 123.645 400.367 124.281 398.305C124.599 397.274 124.832 396.435 124.986 395.853C125.063 395.562 125.12 395.335 125.158 395.181C125.177 395.103 125.191 395.044 125.201 395.004C125.206 394.984 125.209 394.968 125.212 394.958C125.213 394.952 125.214 394.948 125.215 394.946C125.215 394.944 125.215 394.943 125.215 394.942C125.215 394.942 125.215 394.942 125.215 394.941C125.216 394.941 125.216 394.941 124.728 394.829Z" fill="#49606B" mask="url(#path-62-inside-2_31_1808)"/>
<mask id="path-64-inside-3_31_1808" fill="white">
<path d="M200.785 323.76C200.785 323.76 182.454 324.903 194.48 332.859C206.506 340.814 228.273 345.953 228.273 345.953"/>
</mask>
<path d="M200.816 324.259C201.092 324.241 201.301 324.004 201.284 323.728C201.267 323.453 201.029 323.243 200.754 323.26L200.816 324.259ZM228.158 346.439C228.427 346.503 228.696 346.336 228.76 346.068C228.823 345.799 228.657 345.53 228.388 345.466L228.158 346.439ZM200.785 323.76C200.754 323.26 200.754 323.261 200.753 323.261C200.753 323.261 200.753 323.261 200.752 323.261C200.752 323.261 200.751 323.261 200.749 323.261C200.747 323.261 200.743 323.261 200.739 323.261C200.729 323.262 200.715 323.263 200.698 323.264C200.662 323.267 200.61 323.271 200.543 323.276C200.409 323.286 200.214 323.303 199.972 323.327C199.487 323.374 198.809 323.451 198.034 323.568C196.491 323.802 194.527 324.2 192.931 324.864C192.133 325.196 191.396 325.606 190.848 326.119C190.294 326.637 189.909 327.285 189.891 328.07C189.874 328.845 190.218 329.655 190.911 330.501C191.605 331.347 192.679 332.267 194.204 333.276L194.756 332.442C193.274 331.462 192.29 330.606 191.685 329.867C191.078 329.127 190.881 328.543 190.891 328.092C190.901 327.651 191.111 327.242 191.531 326.849C191.957 326.451 192.572 326.096 193.314 325.788C194.797 325.171 196.665 324.787 198.183 324.557C198.938 324.443 199.598 324.368 200.069 324.322C200.305 324.299 200.493 324.283 200.621 324.273C200.685 324.268 200.735 324.264 200.768 324.262C200.784 324.261 200.797 324.26 200.805 324.259C200.809 324.259 200.812 324.259 200.814 324.259C200.815 324.259 200.815 324.259 200.816 324.259C200.816 324.259 200.816 324.259 200.816 324.259C200.816 324.259 200.816 324.259 200.785 323.76ZM194.204 333.276C200.275 337.292 208.777 340.582 215.73 342.864C219.213 344.007 222.318 344.9 224.553 345.508C225.67 345.812 226.571 346.045 227.192 346.201C227.503 346.28 227.744 346.339 227.907 346.379C227.989 346.399 228.052 346.414 228.094 346.424C228.115 346.429 228.131 346.433 228.142 346.435C228.147 346.437 228.151 346.438 228.154 346.438C228.155 346.439 228.156 346.439 228.157 346.439C228.157 346.439 228.158 346.439 228.158 346.439C228.158 346.439 228.158 346.439 228.273 345.953C228.388 345.466 228.388 345.466 228.388 345.466C228.388 345.466 228.388 345.466 228.387 345.466C228.387 345.466 228.386 345.466 228.384 345.465C228.382 345.465 228.378 345.464 228.373 345.463C228.363 345.46 228.347 345.457 228.327 345.452C228.286 345.442 228.225 345.427 228.144 345.407C227.983 345.368 227.745 345.309 227.437 345.232C226.821 345.076 225.926 344.845 224.815 344.543C222.593 343.939 219.505 343.05 216.042 341.914C209.105 339.638 200.71 336.381 194.756 332.442L194.204 333.276Z" fill="#49606B" mask="url(#path-64-inside-3_31_1808)"/>
<path d="M0.631929 316.408C0.616479 316.305 0.569559 316.211 0.5 316.137V308.542L2.7659 309.371C3.00982 309.461 3.28148 309.348 3.3911 309.113L21.2052 270.842C21.843 269.528 22.8442 268.423 24.0921 267.654C25.3412 266.884 26.7855 266.484 28.2557 266.501L28.2557 266.501H28.2614L305.893 266.501L305.898 266.501C307.365 266.487 308.806 266.888 310.052 267.658C311.297 268.427 312.296 269.531 312.932 270.842C312.933 270.843 312.933 270.844 312.934 270.845L327.224 301.567C327.253 301.629 327.294 301.684 327.344 301.729L333.366 307.114L333.5 316.095C333.432 317.2 332.937 318.238 332.117 318.99C331.293 319.747 330.204 320.156 329.081 320.13H329.069H5.06815V320.13L5.05925 320.13C3.99111 320.149 2.95294 319.781 2.13841 319.096C1.32395 318.411 0.788821 317.455 0.631929 316.408Z" fill="#5E5E61" stroke="#263238" stroke-linecap="round" stroke-linejoin="round"/>
<path d="M5.06831 311.702C5.06173 311.702 5.05515 311.702 5.04858 311.702C4.33025 311.731 3.61656 311.577 2.97447 311.257C2.3324 310.936 1.78316 310.459 1.37797 309.87C0.972791 309.282 0.724856 308.601 0.657157 307.891C0.589632 307.183 0.703583 306.47 0.988475 305.818L21.2043 262.416C21.2047 262.415 21.2052 262.414 21.2057 262.413C21.8401 261.097 22.8404 259.989 24.0889 259.22C25.3384 258.45 26.7839 258.052 28.2545 258.072V258.072H28.2616L305.893 258.072L305.899 258.072C307.367 258.055 308.809 258.454 310.056 259.224C311.301 259.994 312.299 261.1 312.933 262.414C312.933 262.414 312.933 262.415 312.933 262.416L333.147 305.813C333.148 305.815 333.148 305.816 333.149 305.818C333.434 306.47 333.548 307.183 333.481 307.891C333.413 308.601 333.165 309.282 332.76 309.87C332.355 310.459 331.805 310.936 331.163 311.257C330.521 311.577 329.808 311.731 329.089 311.702L329.069 312.202V311.702H5.06831Z" fill="#E1E1E6" stroke="#263238" stroke-linecap="round" stroke-linejoin="round"/>
<g style="mix-blend-mode:multiply" opacity="0.5">
<path d="M21.4752 283.043C21.4752 283.043 14.1393 288.045 18.7264 289.872C23.3135 291.699 76.0395 290.333 82.4649 288.506C88.8903 286.68 96.209 269.83 96.209 267.098C96.209 264.367 86.9661 262.403 83.5644 262.25C80.1627 262.096 35.2194 264.811 35.2194 264.811L21.4752 283.043Z" fill="#A8A8A8"/>
</g>
<g style="mix-blend-mode:multiply" opacity="0.5">
<path d="M283.748 291.699C294.128 291.699 302.543 288.229 302.543 283.948C302.543 279.668 294.128 276.197 283.748 276.197C273.368 276.197 264.953 279.668 264.953 283.948C264.953 288.229 273.368 291.699 283.748 291.699Z" fill="#A8A8A8"/>
</g>
<g style="mix-blend-mode:multiply" opacity="0.5">
<path d="M164.088 301.276C201.311 301.276 231.486 295.666 231.486 288.745C231.486 281.825 201.311 276.215 164.088 276.215C126.865 276.215 96.6901 281.825 96.6901 288.745C96.6901 295.666 126.865 301.276 164.088 301.276Z" fill="#A8A8A8"/>
</g>
<path d="M268.347 257.191C268.146 256.88 267.891 256.494 267.61 256.103C267.284 255.649 266.917 255.175 266.557 254.798C266.377 254.609 266.191 254.434 266.005 254.297C265.826 254.164 265.611 254.038 265.377 253.992C265.049 253.927 264.819 254.121 264.707 254.259C264.595 254.397 264.518 254.572 264.46 254.737C264.341 255.077 264.248 255.548 264.172 256.087C264.02 257.176 263.929 258.656 263.903 260.199C263.877 261.745 263.916 263.371 264.027 264.756C264.083 265.449 264.157 266.087 264.251 266.629C264.344 267.161 264.462 267.633 264.619 267.973C264.914 268.612 265.307 269.03 265.771 269.254C266.232 269.476 266.701 269.478 267.094 269.401C267.295 269.361 267.482 269.3 267.648 269.232V271.727C267.511 271.785 267.328 271.856 267.112 271.926C266.608 272.089 265.948 272.239 265.281 272.217C264.62 272.196 263.976 272.007 263.452 271.518C262.926 271.027 262.462 270.179 262.27 268.723C261.869 265.678 261.568 261.479 261.873 257.851C262.026 256.035 262.329 254.391 262.83 253.114C263.334 251.829 264.006 250.997 264.846 250.662C265.779 250.289 266.505 250.303 267.071 250.49C267.647 250.68 268.112 251.067 268.483 251.527C268.855 251.988 269.116 252.503 269.285 252.91C269.369 253.112 269.428 253.283 269.467 253.403C269.474 253.427 269.481 253.449 269.487 253.469C268.996 255.496 268.607 256.601 268.347 257.191Z" fill="#61DCFB" stroke="#263238" stroke-linecap="round" stroke-linejoin="round"/>
<path d="M267.549 281.114V254.777H299.174V281.114C299.174 281.696 298.839 282.321 298.075 282.956C297.314 283.588 296.182 284.18 294.738 284.686C291.856 285.698 287.839 286.333 283.37 286.333C278.901 286.333 274.879 285.698 271.992 284.686C270.546 284.179 269.412 283.588 268.649 282.955C267.883 282.32 267.549 281.696 267.549 281.114Z" fill="#61DCFB" stroke="#263238" stroke-linecap="round" stroke-linejoin="round"/>
<path d="M299.174 254.277C299.174 254.72 298.876 255.239 298.101 255.794C297.338 256.34 296.202 256.852 294.753 257.29C291.861 258.164 287.836 258.711 283.37 258.711C278.903 258.711 274.874 258.164 271.978 257.29C270.526 256.852 269.388 256.34 268.623 255.794C267.847 255.239 267.549 254.72 267.549 254.277C267.549 253.835 267.846 253.315 268.621 252.761C269.384 252.215 270.521 251.703 271.971 251.265C274.865 250.391 278.895 249.844 283.37 249.844C287.844 249.844 291.869 250.395 294.759 251.271C296.207 251.71 297.342 252.223 298.104 252.768C298.878 253.322 299.174 253.839 299.174 254.277Z" fill="#E1E1E6" stroke="#263238" stroke-linecap="round" stroke-linejoin="round"/>
<path d="M297.043 254.277C297.043 254.63 296.805 255.064 296.137 255.541C295.482 256.01 294.5 256.452 293.244 256.831C290.736 257.588 287.243 258.062 283.37 258.062C279.496 258.062 275.999 257.588 273.487 256.831C272.228 256.452 271.245 256.009 270.587 255.541C269.917 255.063 269.679 254.629 269.679 254.277C269.679 253.925 269.917 253.491 270.585 253.014C271.241 252.545 272.223 252.103 273.481 251.724C275.991 250.967 279.487 250.492 283.37 250.492C287.252 250.492 290.745 250.967 293.25 251.724C294.506 252.103 295.485 252.545 296.14 253.013C296.806 253.49 297.043 253.924 297.043 254.277Z" fill="#E1E1E6" stroke="#263238" stroke-linecap="round" stroke-linejoin="round"/>
<path d="M274.386 257.009C280.286 255.605 286.437 255.605 292.337 257.009C286.437 258.413 280.286 258.413 274.386 257.009Z" fill="#263238" stroke="#263238" stroke-linecap="round" stroke-linejoin="round"/>
<path d="M81.4322 275.829L20.1431 275.224L19.9591 267.028L81.4322 266.222V275.829Z" fill="#E1E1E6" stroke="#263238" stroke-linecap="round" stroke-linejoin="round"/>
<path d="M90.4862 253.082V256.83L82.3366 274.286L82.0263 267.683L90.4862 253.082Z" fill="#E1E1E6" stroke="#263238" stroke-linecap="round" stroke-linejoin="round"/>
<path d="M81.4322 284.211L20.1431 283.607L19.9591 275.394L81.4322 274.604V284.211Z" fill="#E1E1E6" stroke="#263238" stroke-linecap="round" stroke-linejoin="round"/>
<path d="M90.4862 261.447V265.195L82.3367 282.667L82.0263 276.048L90.4862 261.447Z" fill="#E1E1E6" stroke="#263238" stroke-linecap="round" stroke-linejoin="round"/>
<path d="M43.054 243.023C42.9839 243.162 42.9823 243.325 43.0495 243.465C43.1168 243.605 43.2454 243.706 43.3975 243.738L47.5107 244.602L31.0301 266.701C31.0272 266.702 31.0243 266.702 31.0214 266.703C30.891 266.732 30.692 266.777 30.4158 266.842C29.8634 266.97 29.002 267.176 27.7629 267.484C27.0877 267.651 26.2701 268.022 25.3825 268.441C25.2279 268.514 25.0703 268.589 24.9098 268.665C24.1311 269.035 23.2835 269.439 22.3691 269.816C20.164 270.725 17.6379 271.452 14.9877 271.143C12.419 270.842 10.9633 269.351 10.2253 267.607C9.47417 265.833 9.48086 263.821 9.85802 262.603C9.87624 262.544 9.96306 262.389 10.1944 262.122C10.4119 261.871 10.7174 261.565 11.1051 261.21C11.8795 260.502 12.9509 259.624 14.2282 258.633C16.7809 256.655 20.1252 254.251 23.4885 251.898C26.8506 249.545 30.2262 247.246 32.8396 245.475C33.5469 244.996 34.2003 244.555 34.7834 244.16C36.3432 243.106 37.3994 242.392 37.6349 242.213C37.915 242.001 38.2404 241.696 38.5743 241.383C38.64 241.322 38.706 241.26 38.7721 241.199C39.1879 240.812 39.6295 240.414 40.0889 240.085C41.034 239.409 41.871 239.148 42.6257 239.598C43.413 240.068 43.5596 240.838 43.4676 241.611C43.4219 241.995 43.3179 242.351 43.223 242.615C43.176 242.746 43.1322 242.851 43.1007 242.922C43.085 242.958 43.0725 242.985 43.0644 243.002L43.0555 243.02L43.0541 243.023L43.054 243.023L43.054 243.023Z" fill="#61DCFB" stroke="#263238" stroke-linecap="round" stroke-linejoin="round"/>
<path d="M31.0689 266.664L31.0289 266.719C31.0264 266.719 31.0239 266.72 31.0214 266.72C30.891 266.749 30.692 266.795 30.4157 266.859C29.8633 266.988 29.0019 267.193 27.7629 267.501C27.0884 267.668 26.2714 268.036 25.3836 268.453C25.2281 268.526 25.0696 268.6 24.9081 268.677C24.1302 269.044 23.2833 269.445 22.3699 269.82C20.1645 270.725 17.6371 271.453 14.9853 271.16C12.4198 270.867 10.9636 269.37 10.2184 267.617C9.49744 265.922 9.45717 264.013 9.75917 262.795C10.6391 262.284 11.6601 262.059 12.6786 262.154C13.7604 262.255 14.7769 262.712 15.5672 263.451C15.6348 263.515 15.7188 263.558 15.8097 263.576L31.0689 266.664Z" fill="#E1E1E6" stroke="#263238" stroke-linecap="round" stroke-linejoin="round"/>
<path d="M91.5992 243.877C91.7512 243.868 91.8907 243.86 92.0172 243.852L83.2634 261.847C83.1153 261.869 82.8972 261.898 82.6001 261.933C81.9509 262.008 80.9249 262.11 79.4286 262.212C76.4357 262.416 71.5639 262.621 64.0648 262.621H17.5118L43.6343 243.832C47.2484 244.523 50.9127 244.923 54.5916 245.029C59.1398 245.337 68.7201 245.028 77.1338 244.645C81.3507 244.453 85.2853 244.241 88.1655 244.078C89.6057 243.996 90.7824 243.927 91.5992 243.877Z" fill="#61DCFB" stroke="#263238" stroke-linecap="round" stroke-linejoin="round"/>
<path d="M17.1856 266.293L16.5834 263.613L83.139 262.79L83.6326 266.877C83.4212 266.868 83.1556 266.856 82.8396 266.842C81.9445 266.804 80.6444 266.752 79.0231 266.701C75.7807 266.598 71.2526 266.496 66.1093 266.496C60.9739 266.496 48.6441 266.445 37.5968 266.393C32.0734 266.368 26.8711 266.342 23.0497 266.323C21.1389 266.313 19.5734 266.305 18.4856 266.3L17.2286 266.293L17.1856 266.293Z" fill="#E1E1E6" stroke="#263238" stroke-linecap="round" stroke-linejoin="round"/>
<path d="M92.3244 245.42V247.634L84.4768 265.482L84.0955 262.336L92.3244 245.42Z" fill="#E1E1E6" stroke="#263238" stroke-linecap="round" stroke-linejoin="round"/>
<path d="M105.177 289.799V289.799L105.173 289.799C104.977 289.801 104.784 289.764 104.603 289.691C104.422 289.618 104.258 289.51 104.12 289.374C103.982 289.237 103.872 289.076 103.797 288.897C103.723 288.719 103.684 288.528 103.684 288.336V288.335C103.684 288.143 103.723 287.952 103.797 287.774C103.872 287.595 103.982 287.434 104.12 287.297C104.258 287.161 104.422 287.053 104.603 286.98C104.784 286.907 104.977 286.871 105.173 286.872L105.173 286.872H105.177L222.947 286.872L222.952 286.872C223.146 286.871 223.338 286.907 223.518 286.98C223.697 287.053 223.86 287.161 223.997 287.297C224.134 287.433 224.242 287.594 224.315 287.772C224.388 287.949 224.425 288.139 224.423 288.331L224.423 288.34C224.425 288.532 224.388 288.722 224.315 288.899C224.242 289.077 224.134 289.238 223.997 289.374C223.86 289.51 223.697 289.618 223.518 289.691C223.338 289.764 223.146 289.801 222.952 289.799L222.947 290.299V289.799H105.177Z" fill="#161E22" stroke="#263238" stroke-linecap="round" stroke-linejoin="round"/>
<path d="M104.301 285.838H104.3C103.988 285.839 103.689 285.721 103.462 285.509C103.236 285.298 103.101 285.01 103.082 284.703L103.082 284.703L103.081 284.692L96.5699 206.93C96.5694 206.924 96.5687 206.917 96.568 206.911C96.5473 206.741 96.5633 206.569 96.6149 206.406C96.6665 206.243 96.7526 206.092 96.8676 205.964C96.9827 205.836 97.124 205.733 97.2824 205.663C97.4408 205.594 97.6125 205.558 97.7861 205.559L97.7861 205.559H97.7896L230.61 205.559L230.613 205.559C230.787 205.558 230.958 205.594 231.117 205.663C231.275 205.733 231.417 205.836 231.532 205.964C231.647 206.092 231.733 206.243 231.784 206.406C231.836 206.569 231.852 206.741 231.831 206.911C231.831 206.917 231.83 206.924 231.829 206.93L225.318 284.692L225.318 284.692L225.317 284.703C225.299 285.012 225.161 285.302 224.932 285.514C224.704 285.725 224.401 285.842 224.087 285.838L224.081 286.338V285.838H104.301Z" fill="#161E22" stroke="#263238" stroke-linecap="round" stroke-linejoin="round"/>
<mask id="path-87-inside-4_31_1808" fill="white">
<path d="M292.407 186.298C294.244 184.873 295.535 182.867 296.066 180.613C296.452 178.922 296.411 177.162 295.946 175.491"/>
</mask>
<path d="M291.794 185.507C291.358 185.846 291.278 186.474 291.616 186.91C291.955 187.347 292.583 187.426 293.019 187.088L291.794 185.507ZM296.066 180.613L297.04 180.842L297.041 180.835L296.066 180.613ZM296.909 175.223C296.761 174.691 296.21 174.38 295.678 174.528C295.146 174.676 294.834 175.227 294.983 175.759L296.909 175.223ZM293.019 187.088C295.037 185.524 296.456 183.32 297.04 180.842L295.093 180.384C294.615 182.414 293.451 184.223 291.794 185.507L293.019 187.088ZM297.041 180.835C297.464 178.983 297.419 177.054 296.909 175.223L294.983 175.759C295.403 177.27 295.44 178.861 295.091 180.39L297.041 180.835Z" fill="#6C7D85" mask="url(#path-87-inside-4_31_1808)"/>
<mask id="path-89-inside-5_31_1808" fill="white">
<path d="M278.697 247.176C278.697 247.176 290.122 240.347 286.394 232.545C282.666 224.743 270.055 219.571 270.055 207.415C270.055 196.933 281.274 193.058 288.593 188.858"/>
</mask>
<path d="M278.184 246.317C277.71 246.601 277.555 247.215 277.839 247.689C278.122 248.163 278.736 248.317 279.21 248.034L278.184 246.317ZM289.09 189.726C289.569 189.451 289.735 188.84 289.46 188.361C289.185 187.882 288.574 187.716 288.095 187.991L289.09 189.726ZM278.697 247.176C279.21 248.034 279.21 248.034 279.211 248.033C279.211 248.033 279.211 248.033 279.212 248.033C279.212 248.033 279.213 248.032 279.214 248.031C279.216 248.03 279.219 248.028 279.223 248.026C279.23 248.022 279.239 248.016 279.252 248.009C279.276 247.994 279.311 247.972 279.356 247.944C279.445 247.888 279.573 247.807 279.733 247.701C280.052 247.489 280.5 247.181 281.025 246.786C282.071 245.999 283.437 244.857 284.69 243.451C287.153 240.687 289.432 236.585 287.296 232.114L285.491 232.976C287.083 236.307 285.514 239.52 283.197 242.121C282.059 243.397 280.802 244.45 279.823 245.188C279.334 245.555 278.919 245.841 278.629 246.033C278.483 246.129 278.369 246.202 278.293 246.25C278.255 246.274 278.226 246.291 278.208 246.303C278.198 246.308 278.192 246.312 278.188 246.315C278.186 246.316 278.184 246.317 278.184 246.317C278.183 246.317 278.183 246.318 278.183 246.318C278.183 246.318 278.183 246.317 278.183 246.317C278.184 246.317 278.184 246.317 278.697 247.176ZM287.296 232.114C286.293 230.016 284.715 228.136 282.988 226.343C282.122 225.443 281.201 224.549 280.284 223.654C279.362 222.756 278.44 221.854 277.549 220.922C273.984 217.19 271.055 213.099 271.055 207.415H269.055C269.055 213.887 272.431 218.46 276.103 222.303C277.022 223.265 277.968 224.19 278.888 225.086C279.812 225.987 280.708 226.858 281.548 227.73C283.233 229.481 284.63 231.174 285.491 232.976L287.296 232.114ZM271.055 207.415C271.055 202.607 273.6 199.28 277.181 196.58C278.979 195.224 281.014 194.047 283.082 192.937C285.119 191.842 287.248 190.783 289.09 189.726L288.095 187.991C286.278 189.034 284.26 190.034 282.135 191.175C280.042 192.299 277.899 193.534 275.977 194.983C272.12 197.89 269.055 201.742 269.055 207.415H271.055Z" fill="#6C7D85" mask="url(#path-89-inside-5_31_1808)"/>
<mask id="path-91-inside-6_31_1808" fill="white">
<path d="M289.246 246.954C289.246 246.954 295.619 242.737 295.619 236.045C295.619 231.555 290.792 228.619 284.418 221.397"/>
</mask>
<path d="M288.694 246.12C288.233 246.424 288.107 247.045 288.412 247.505C288.716 247.966 289.337 248.092 289.797 247.788L288.694 246.12ZM285.168 220.735C284.802 220.321 284.17 220.282 283.756 220.647C283.342 221.013 283.303 221.645 283.668 222.059L285.168 220.735ZM289.246 246.954C289.797 247.788 289.798 247.787 289.798 247.787C289.798 247.787 289.799 247.787 289.799 247.787C289.799 247.786 289.8 247.786 289.801 247.785C289.802 247.784 289.804 247.783 289.807 247.781C289.811 247.778 289.818 247.774 289.825 247.769C289.841 247.758 289.862 247.744 289.889 247.725C289.942 247.688 290.018 247.634 290.113 247.565C290.302 247.425 290.567 247.222 290.883 246.957C291.514 246.429 292.355 245.653 293.197 244.653C294.872 242.666 296.619 239.717 296.619 236.045H294.619C294.619 239.065 293.18 241.57 291.668 243.364C290.917 244.256 290.164 244.951 289.6 245.423C289.319 245.659 289.086 245.837 288.926 245.954C288.847 246.013 288.785 246.056 288.746 246.084C288.726 246.098 288.711 246.108 288.702 246.114C288.698 246.117 288.695 246.119 288.694 246.12C288.693 246.12 288.693 246.12 288.693 246.12C288.693 246.12 288.693 246.12 288.693 246.12C288.693 246.12 288.693 246.12 288.693 246.12C288.694 246.12 288.694 246.12 289.246 246.954ZM296.619 236.045C296.619 233.399 295.178 231.298 293.148 229.072C292.128 227.952 290.903 226.745 289.567 225.397C288.223 224.041 286.742 222.519 285.168 220.735L283.668 222.059C285.281 223.886 286.793 225.439 288.147 226.805C289.509 228.179 290.687 229.34 291.67 230.419C293.647 232.588 294.619 234.2 294.619 236.045H296.619Z" fill="#6C7D85" mask="url(#path-91-inside-6_31_1808)"/>
<mask id="path-93-inside-7_31_1808" fill="white">
<path d="M280.897 217.027C280.897 217.027 276.72 213.766 279.797 207.637Z"/>
</mask>
<path d="M280.281 217.815C280.717 218.155 281.345 218.078 281.685 217.642C282.025 217.207 281.947 216.578 281.512 216.239L280.281 217.815ZM280.691 208.086C280.938 207.592 280.739 206.991 280.245 206.744C279.752 206.496 279.151 206.695 278.903 207.189L280.691 208.086ZM280.897 217.027C281.512 216.239 281.513 216.239 281.513 216.239C281.513 216.239 281.514 216.24 281.514 216.24C281.514 216.24 281.515 216.241 281.515 216.241C281.516 216.242 281.517 216.242 281.517 216.242C281.518 216.243 281.517 216.243 281.516 216.242C281.514 216.24 281.508 216.235 281.498 216.227C281.48 216.211 281.448 216.183 281.406 216.144C281.322 216.065 281.197 215.941 281.052 215.771C280.761 215.432 280.398 214.92 280.116 214.245C279.569 212.933 279.283 210.89 280.691 208.086L278.903 207.189C277.234 210.513 277.498 213.165 278.27 215.015C278.648 215.922 279.136 216.609 279.532 217.072C279.731 217.304 279.908 217.482 280.04 217.605C280.107 217.667 280.162 217.715 280.203 217.75C280.223 217.768 280.24 217.782 280.254 217.793C280.26 217.798 280.266 217.803 280.27 217.806C280.273 217.808 280.275 217.81 280.277 217.811C280.278 217.812 280.278 217.813 280.279 217.813C280.28 217.814 280.28 217.814 280.28 217.814C280.281 217.815 280.281 217.815 280.897 217.027Z" fill="#6C7D85" mask="url(#path-93-inside-7_31_1808)"/>
<g clip-path="url(#clip0_31_1808)">
<path fill-rule="evenodd" clip-rule="evenodd" d="M177.618 238.144C183.032 239.78 186.563 242.42 186.563 245.204C186.563 247.98 183.049 250.62 177.67 252.256C178.928 257.689 178.381 262.016 175.944 263.404C175.371 263.729 174.712 263.884 173.983 263.884C171.597 263.884 168.474 262.221 165.316 259.325C162.158 262.238 159.035 263.918 156.649 263.918C155.92 263.918 155.261 263.764 154.697 263.438C152.251 262.05 151.695 257.714 152.945 252.265C147.531 250.628 144 247.989 144 245.204C144 242.428 147.514 239.798 152.91 238.152C151.652 232.72 152.198 228.393 154.636 227.005C155.209 226.679 155.868 226.525 156.597 226.525V226.517C158.983 226.517 162.106 228.179 165.264 231.075C168.422 228.162 171.545 226.482 173.931 226.482V226.491C174.648 226.492 175.304 226.646 175.866 226.971C178.312 228.359 178.867 232.694 177.618 238.144ZM173.922 228.393C172.118 228.398 169.467 229.82 166.643 232.412C167.867 233.671 169.081 235.111 170.252 236.696C172.204 236.901 174.061 237.219 175.761 237.63C175.952 236.764 176.108 235.916 176.204 235.111C176.603 231.838 176.091 229.293 174.911 228.624C174.642 228.479 174.321 228.402 173.922 228.402V228.393ZM163.885 232.42C161.056 229.841 158.393 228.427 156.597 228.427V228.436C156.198 228.436 155.86 228.504 155.599 228.659C154.428 229.336 153.925 231.88 154.333 235.154C154.437 235.95 154.584 236.782 154.784 237.638C156.484 237.219 158.341 236.901 160.301 236.696C161.455 235.111 162.67 233.68 163.885 232.42ZM174.096 242.874C174.547 241.734 174.946 240.594 175.267 239.489C174.13 239.215 172.942 238.992 171.71 238.812C172.135 239.463 172.56 240.132 172.959 240.817C173.367 241.503 173.74 242.188 174.096 242.874ZM169.203 251.888C169.923 250.868 170.617 249.771 171.293 248.615C171.944 247.492 172.543 246.344 173.089 245.196C172.543 244.048 171.944 242.908 171.285 241.785C170.608 240.637 169.905 239.549 169.185 238.529C167.901 238.427 166.591 238.367 165.281 238.367C163.963 238.367 162.653 238.427 161.36 238.538C160.64 239.558 159.946 240.654 159.269 241.811C158.618 242.934 158.011 244.082 157.473 245.23C158.02 246.378 158.618 247.518 159.278 248.64C159.954 249.788 160.657 250.877 161.377 251.896C162.661 251.999 163.971 252.059 165.281 252.059C166.6 252.059 167.91 251.999 169.203 251.888ZM175.293 250.911C174.963 249.797 174.564 248.649 174.096 247.501C173.74 248.186 173.367 248.88 172.968 249.566C172.569 250.26 172.144 250.937 171.719 251.596C172.959 251.416 174.156 251.185 175.293 250.911ZM162.887 253.901C163.685 254.904 164.492 255.821 165.299 256.643C166.097 255.821 166.904 254.904 167.684 253.901C166.895 253.944 166.088 253.961 165.273 253.961C164.466 253.961 163.668 253.936 162.887 253.901ZM155.287 250.919C156.423 251.194 157.612 251.416 158.844 251.596C158.419 250.945 158.002 250.277 157.595 249.591C157.187 248.906 156.814 248.22 156.458 247.535C156.007 248.675 155.608 249.814 155.287 250.919ZM167.667 236.507C166.869 235.505 166.062 234.588 165.255 233.765C164.457 234.588 163.65 235.505 162.869 236.507C163.659 236.464 164.466 236.447 165.281 236.447C166.088 236.447 166.886 236.473 167.667 236.507ZM157.586 240.843C157.985 240.149 158.41 239.472 158.835 238.812C157.595 238.992 156.397 239.224 155.261 239.489C155.591 240.603 155.99 241.751 156.458 242.899C156.814 242.214 157.187 241.528 157.586 240.843ZM145.926 245.204C145.926 246.55 147.913 248.246 150.984 249.54C151.739 249.857 152.554 250.148 153.413 250.414C153.899 248.743 154.541 247.004 155.339 245.221C154.532 243.431 153.882 241.683 153.387 240.003C152.545 240.269 151.73 240.552 150.984 240.869C147.913 242.154 145.926 243.859 145.926 245.204ZM154.359 255.298C153.96 258.571 154.471 261.116 155.651 261.784C155.912 261.93 156.241 262.007 156.632 262.016C158.436 262.016 161.091 260.593 163.919 257.997C162.696 256.737 161.481 255.298 160.31 253.713C158.358 253.507 156.502 253.19 154.801 252.779C154.61 253.644 154.454 254.492 154.359 255.298ZM174.963 261.75C176.134 261.073 176.638 258.528 176.23 255.255C176.134 254.458 175.978 253.627 175.779 252.762C174.078 253.182 172.222 253.499 170.261 253.704C169.107 255.289 167.893 256.72 166.678 257.98C169.506 260.559 172.17 261.973 173.966 261.973C174.365 261.973 174.703 261.904 174.963 261.75ZM177.167 250.405C178.008 250.14 178.824 249.857 179.57 249.54C182.641 248.255 184.628 246.55 184.637 245.204C184.637 243.859 182.65 242.162 179.579 240.869C178.815 240.552 178 240.26 177.141 239.995C176.655 241.666 176.013 243.405 175.215 245.187C176.022 246.978 176.672 248.726 177.167 250.405ZM169.237 245.204C169.237 247.367 167.462 249.12 165.273 249.12C163.083 249.12 161.308 247.367 161.308 245.204C161.308 243.042 163.083 241.289 165.273 241.289C167.462 241.289 169.237 243.042 169.237 245.204Z" fill="#61DCFB"/>
</g>
<defs>
<clipPath id="clip0_31_1808">
<rect width="43" height="50.4" fill="white" transform="translate(144 220)"/>
</clipPath>
</defs>
</svg>
